<?xml version="1.0" standalone="yes"?>
<svg xmlns="http://www.w3.org/2000/svg" width="392" height="358">
<path style="fill:#979797; stroke:none;" d="M0 0L0 358L392 358L392 0L0 0z"/>
<path style="fill:#a57d7b; stroke:none;" d="M49 24L49 208L55 204L51 206L51 24L49 24z"/>
<path style="fill:#d32e27; stroke:none;" d="M51 24L51 206C55.8374 203.48 59.0451 196.851 62.223 192.478C70.2037 181.495 78.3803 170.407 86.7809 159.745C108.891 131.684 128.682 101.791 150.781 73.7454C162.45 58.9356 179.978 41.5123 187 24L51 24z"/>
<path style="fill:#a57d7b; stroke:none;" d="M187 24L187 26L189 26L189 24L187 24M233 24L229 30L235 24L233 24z"/>
<path style="fill:#d32e27; stroke:none;" d="M9 324L106 324C116.551 324 136.051 327.814 145.61 323.397C149.42 321.637 151.846 315.749 154.223 312.478C160.248 304.185 166.438 295.795 172.781 287.745C198.442 255.179 224.526 221.599 247.71 187.232C253.561 178.559 260.303 169.967 266.781 161.745C269.901 157.786 274.87 153.182 275 148C283.402 143.852 289.061 131.004 294.781 123.745C312.579 101.158 329.318 77.7416 346.223 54.4776C352.47 45.8812 365.437 34.7396 367 24L274 24C263.653 24 244.864 20.351 235.518 24.8434C228.736 28.1028 224.023 37.6793 219.777 43.5224C209.852 57.1799 199.745 71.0616 189.218 84.2546C145.903 138.541 106.196 195.711 63.2191 250.255C50.2679 266.691 38.1735 283.814 25.2191 300.255C20.1772 306.654 10.183 315.882 9 324z"/>
<path style="fill:#a57d7b; stroke:none;" d="M367 24L367 28L369 28L369 24L367 24M185 26L185 28L187 28L187 26L185 26M365 28L365 30L367 30L367 28L365 28M183 30L183 32L185 32L185 30L183 30M363 30L363 32L365 32L365 30L363 30M181 32L181 34L183 34L183 32L181 32M179 34L179 36L181 36L181 34L179 34M225 34L225 36L227 36L227 34L225 34M361 34L361 36L363 36L363 34L361 34M223 36L223 38L225 38L225 36L223 36M359 36L359 38L361 38L361 36L359 36M177 38L177 40L179 40L179 38L177 38M357 38L357 40L359 40L359 38L357 38M175 40L175 42L177 42L177 40L175 40M173 42L173 44L175 44L175 42L173 42M219 42L219 44L221 44L221 42L219 42M355 42L355 44L357 44L357 42L355 42M217 44L217 46L219 46L219 44L217 44M353 44L353 46L355 46L355 44L353 44M171 46L171 48L173 48L173 46L171 46M216.333 46.6667L216.667 47.3333L216.333 46.6667M351 46L351 48L353 48L353 46L351 46M169 48L169 50L171 50L171 48L169 48M167 50L167 52L169 52L169 50L167 50M213 50L213 52L215 52L215 50L213 50M349 50L349 52L351 52L351 50L349 50M211 52L211 54L213 54L213 52L211 52M347 52L347 54L349 54L349 52L347 52M165 54L165 56L167 56L167 54L165 54M209 54L209 56L211 56L211 54L209 54M345 54L345 56L347 56L347 54L345 54M163 56L163 58L165 58L165 56L163 56M161 58L161 60L163 60L163 58L161 58M207 58L207 60L209 60L209 58L207 58M343 58L343 60L345 60L345 58L343 58M205 60L205 62L207 62L207 60L205 60M341 60L341 62L343 62L343 60L341 60M159 62L159 64L161 64L161 62L159 62M203 62L203 64L205 64L205 62L203 62M339 62L339 64L341 64L341 62L339 62M157 64L157 66L159 66L159 64L157 64M155 66L155 68L157 68L157 66L155 66M201 66L201 68L203 68L203 66L201 66M337 66L337 68L339 68L339 66L337 66M199 68L199 70L201 70L201 68L199 68M335 68L335 70L337 70L337 68L335 68M153 70L153 72L155 72L155 70L153 70M197 70L197 72L199 72L199 70L197 70M151 72L151 74L153 74L153 72L151 72M149 74L149 76L151 76L151 74L149 74M195 74L195 76L197 76L197 74L195 74M331 74L331 76L333 76L333 74L331 74M193 76L193 78L195 78L195 76L193 76M329 76L329 78L331 78L331 76L329 76M147 78L147 80L149 80L149 78L147 78M191 78L191 80L193 80L193 78L191 78z"/>
<path style="fill:#63698e; stroke:none;" d="M363 82L369 80L369 78L363 82z"/>
<path style="fill:#a57d7b; stroke:none;" d="M145 80L145 82L147 82L147 80L145 80z"/>
<path style="fill:#1c2b83; stroke:none;" d="M365 80C323.336 138.817 278.146 195.218 235.777 253.522C224.022 269.698 211.534 285.343 199.777 301.522C194.959 308.153 186.217 315.64 185 324L367 324L367 80L365 80z"/>
<path style="fill:#a57d7b; stroke:none;" d="M367 80L369 92L369 80L367 80M143 82L143 84L145 84L145 82L143 82M189 82L189 84L191 84L191 82L189 82M325 82L325 84L327 84L327 82L325 82M361 82L361 84L363 84L361 82z"/>
<path style="fill:#979797; stroke:none;" d="M367 83L368 84L367 83z"/>
<path style="fill:#a57d7b; stroke:none;" d="M187 84L187 86L189 86L189 84L187 84M323 84L323 86L325 86L325 84L323 84M141 86L141 88L143 88L143 86L141 86M185 86L185 88L187 88L187 86L185 86z"/>
<path style="fill:#63698e; stroke:none;" d="M359 86L359 88L361 88L361 86L359 86z"/>
<path style="fill:#a57d7b; stroke:none;" d="M139 88L139 90L141 90L141 88L139 88z"/>
<path style="fill:#63698e; stroke:none;" d="M357 88L357 90L359 90L359 88L357 88z"/>
<path style="fill:#a57d7b; stroke:none;" d="M319 90L319 92L321 92L321 90L319 90M355 91L356 92L355 91M181 92L181 94L183 94L183 92L181 92M317 92L317 94L319 94L319 92L317 92M368 93L368 96L369 96L368 93M135 94L135 96L137 96L137 94L135 94M179 94L179 96L181 96L181 94L179 94z"/>
<path style="fill:#63698e; stroke:none;" d="M353 94L353 96L355 96L355 94L353 94z"/>
<path style="fill:#a57d7b; stroke:none;" d="M133 96L133 98L135 98L135 96L133 96z"/>
<path style="fill:#63698e; stroke:none;" d="M351 96L351 98L353 98L353 96L351 96M367 96L367 324L369 324L369 96L367 96z"/>
<path style="fill:#a57d7b; stroke:none;" d="M313 98L313 100L315 100L315 98L313 98M175 100L175 102L177 102L177 100L175 100M311 100L311 102L313 102L313 100L311 100M129 102L129 104L131 104L131 102L129 102M173 102L173 104L175 104L175 102L173 102z"/>
<path style="fill:#63698e; stroke:none;" d="M347 102L347 104L349 104L349 102L347 102z"/>
<path style="fill:#a57d7b; stroke:none;" d="M127 104L127 106L129 106L129 104L127 104z"/>
<path style="fill:#63698e; stroke:none;" d="M345 104L345 106L347 106L347 104L345 104z"/>
<path style="fill:#a57d7b; stroke:none;" d="M309.667 105.333L310.333 105.667L309.667 105.333M307 106L307 108L309 108L309 106L307 106M169 108L169 110L171 110L171 108L169 108M305 108L305 110L307 110L307 108L305 108M123 110L123 112L125 112L125 110L123 110M167 110L167 112L169 112L169 110L167 110z"/>
<path style="fill:#63698e; stroke:none;" d="M341 110L341 112L343 112L343 110L341 110z"/>
<path style="fill:#a57d7b; stroke:none;" d="M121 112L121 114L123 114L123 112L121 112M165 112L167 114L167 112L165 112M303 112L303 114L305 114L305 112L303 112z"/>
<path style="fill:#63698e; stroke:none;" d="M339 112L339 114L341 114L341 112L339 112z"/>
<path style="fill:#a57d7b; stroke:none;" d="M301 114L301 116L303 116L303 114L301 114M163 116L163 118L165 118L165 116L163 116M299 116L299 118L301 118L301 116L299 116M117 118L117 120L119 120L119 118L117 118M161 118L161 120L163 120L163 118L161 118z"/>
<path style="fill:#63698e; stroke:none;" d="M335 118L335 120L337 120L337 118L335 118z"/>
<path style="fill:#a57d7b; stroke:none;" d="M115 120L115 122L117 122L117 120L115 120M159 120L159 122L161 122L161 120L159 120M297 120L297 122L299 122L299 120L297 120z"/>
<path style="fill:#63698e; stroke:none;" d="M333 120L333 122L335 122L335 120L333 120z"/>
<path style="fill:#a57d7b; stroke:none;" d="M295 122L295 124L297 124L297 122L295 122M157 124L157 126L159 126L159 124L157 124M293 124L293 126L295 126L295 124L293 124M111 126L111 128L113 128L113 126L111 126M155 126L155 128L157 128L157 126L155 126z"/>
<path style="fill:#63698e; stroke:none;" d="M329 126L329 128L331 128L331 126L329 126z"/>
<path style="fill:#a57d7b; stroke:none;" d="M109 128L109 130L111 130L111 128L109 128M153 128L153 130L155 130L155 128L153 128M291 128L291 130L293 130L293 128L291 128z"/>
<path style="fill:#63698e; stroke:none;" d="M327 128L327 130L329 130L329 128L327 128z"/>
<path style="fill:#a57d7b; stroke:none;" d="M289 130L289 132L291 132L291 130L289 130M151 132L151 134L153 134L153 132L151 132M287 132L287 134L289 134L289 132L287 132M105 134L105 136L107 136L107 134L105 134M149 134L149 136L151 136L151 134L149 134z"/>
<path style="fill:#63698e; stroke:none;" d="M323 134L323 136L325 136L325 134L323 134z"/>
<path style="fill:#a57d7b; stroke:none;" d="M103 136L103 138L105 138L105 136L103 136M147 136L147 138L149 138L149 136L147 136M285 136L285 138L287 138L287 136L285 136z"/>
<path style="fill:#63698e; stroke:none;" d="M321 136L321 138L323 138L323 136L321 136z"/>
<path style="fill:#a57d7b; stroke:none;" d="M283 138L283 140L285 140L285 138L283 138M145 140L146 141L145 140M281 140L281 142L283 142L283 140L281 140M99 142L99 144L101 144L101 142L99 142M143 142L143 144L145 144L145 142L143 142z"/>
<path style="fill:#63698e; stroke:none;" d="M317 142L317 144L319 144L319 142L317 142z"/>
<path style="fill:#a57d7b; stroke:none;" d="M97 144L97 146L99 146L99 144L97 144M141 144L141 146L143 146L143 144L141 144M279 144L279 146L281 146L281 144L279 144z"/>
<path style="fill:#63698e; stroke:none;" d="M315 144L315 146L317 146L317 144L315 144z"/>
<path style="fill:#a57d7b; stroke:none;" d="M277 146L277 148L279 148L279 146L277 146M275 148L277 150L277 148L275 148M93 150L93 152L95 152L95 150L93 150M137 150L137 152L139 152L139 150L137 150z"/>
<path style="fill:#63698e; stroke:none;" d="M311 150L311 152L313 152L313 150L311 150z"/>
<path style="fill:#a57d7b; stroke:none;" d="M91 152L91 154L93 154L93 152L91 152M135 152L135 154L137 154L137 152L135 152M273 152L273 154L275 154L275 152L273 152z"/>
<path style="fill:#63698e; stroke:none;" d="M309 152L309 154L311 154L311 152L309 152z"/>
<path style="fill:#a57d7b; stroke:none;" d="M271 154L271 156L273 156L273 154L271 154M87 158L87 160L89 160L89 158L87 158M131 158L131 160L133 160L133 158L131 158z"/>
<path style="fill:#63698e; stroke:none;" d="M305 158L305 160L307 160L307 158L305 158z"/>
<path style="fill:#a57d7b; stroke:none;" d="M85 160L85 162L87 162L87 160L85 160M129 160L129 162L131 162L131 160L129 160M267 160L267 162L269 162L269 160L267 160z"/>
<path style="fill:#63698e; stroke:none;" d="M303 160L303 162L305 162L305 160L303 160z"/>
<path style="fill:#a57d7b; stroke:none;" d="M265 162L265 164L267 164L267 162L265 162M81 166L81 168L83 168L83 166L81 166M125 166L125 168L127 168L127 166L125 166z"/>
<path style="fill:#63698e; stroke:none;" d="M299 166L299 168L301 168L301 166L299 166z"/>
<path style="fill:#a57d7b; stroke:none;" d="M79 168L79 170L81 170L81 168L79 168M123 168L123 170L125 170L125 168L123 168M261 168L261 170L263 170L263 168L261 168z"/>
<path style="fill:#63698e; stroke:none;" d="M297 168L297 170L299 170L299 168L297 168z"/>
<path style="fill:#a57d7b; stroke:none;" d="M121 170L121 172L123 170L121 170M259 170L259 172L261 172L261 170L259 170z"/>
<path style="fill:#979797; stroke:none;" d="M122 171L123 172L122 171z"/>
<path style="fill:#63698e; stroke:none;" d="M295 172L296 173L295 172M296 173L297 174L296 173z"/>
<path style="fill:#a57d7b; stroke:none;" d="M75 174L75 176L77 176L77 174L75 174M119 174L119 176L121 176L121 174L119 174z"/>
<path style="fill:#63698e; stroke:none;" d="M293 174L293 176L295 176L295 174L293 174z"/>
<path style="fill:#a57d7b; stroke:none;" d="M73 176L73 178L75 178L75 176L73 176M117 176L117 178L119 178L119 176L117 176M255 176L255 178L257 178L257 176L255 176z"/>
<path style="fill:#63698e; stroke:none;" d="M291 176L291 178L293 178L293 176L291 176z"/>
<path style="fill:#a57d7b; stroke:none;" d="M115 178L115 180L117 180L117 178L115 178M253 178L253 180L255 180L255 178L253 178z"/>
<path style="fill:#63698e; stroke:none;" d="M289 180L289 182L291 182L291 180L289 180z"/>
<path style="fill:#a57d7b; stroke:none;" d="M69 182L69 184L71 184L71 182L69 182M113 182L113 184L115 184L115 182L113 182z"/>
<path style="fill:#63698e; stroke:none;" d="M287 182L287 184L289 184L289 182L287 182z"/>
<path style="fill:#a57d7b; stroke:none;" d="M67 184L67 186L69 186L69 184L67 184M111 184L111 186L113 186L113 184L111 184M249 184L249 186L251 186L251 184L249 184z"/>
<path style="fill:#63698e; stroke:none;" d="M285 184L285 186L287 186L287 184L285 184z"/>
<path style="fill:#a57d7b; stroke:none;" d="M109 186L109 188L111 188L111 186L109 186M247 186L247 188L249 188L249 186L247 186M65 188L66 189L65 188z"/>
<path style="fill:#63698e; stroke:none;" d="M283 188L283 190L285 190L285 188L283 188z"/>
<path style="fill:#a57d7b; stroke:none;" d="M63 190L63 192L65 192L65 190L63 190M107 190L107 192L109 192L109 190L107 190M245 190L245 192L247 192L247 190L245 190z"/>
<path style="fill:#63698e; stroke:none;" d="M281 190L281 192L283 192L283 190L281 190z"/>
<path style="fill:#a57d7b; stroke:none;" d="M61 192L61 194L63 194L63 192L61 192M105 192L105 194L107 194L107 192L105 192M243 192L243 194L245 194L245 192L243 192z"/>
<path style="fill:#63698e; stroke:none;" d="M279 192L279 194L281 194L281 192L279 192z"/>
<path style="fill:#a57d7b; stroke:none;" d="M103 194L103 196L105 196L105 194L103 194M241 194L241 196L243 196L243 194L241 194M59 196L59 198L61 198L59 196z"/>
<path style="fill:#63698e; stroke:none;" d="M277 196L277 198L279 198L279 196L277 196z"/>
<path style="fill:#a57d7b; stroke:none;" d="M57 198L57 200L59 200L59 198L57 198M101 198L101 200L103 200L103 198L101 198M239 198L239 200L241 200L241 198L239 198z"/>
<path style="fill:#63698e; stroke:none;" d="M275 198L275 200L277 200L277 198L275 198z"/>
<path style="fill:#a57d7b; stroke:none;" d="M55 200L55 202L57 202L57 200L55 200M99 200L99 202L101 202L101 200L99 200M237 200L237 202L239 202L239 200L237 200z"/>
<path style="fill:#63698e; stroke:none;" d="M273 200L273 202L275 202L275 200L273 200z"/>
<path style="fill:#a57d7b; stroke:none;" d="M97 202L97 204L99 204L99 202L97 202M235 202L235 204L237 204L237 202L235 202z"/>
<path style="fill:#63698e; stroke:none;" d="M271 204L271 206L273 206L273 204L271 204z"/>
<path style="fill:#a57d7b; stroke:none;" d="M233 206L233 208L235 208L235 206L233 206z"/>
<path style="fill:#63698e; stroke:none;" d="M269 206L269 208L271 208L271 206L269 206z"/>
<path style="fill:#a57d7b; stroke:none;" d="M93 208L93 210L95 210L95 208L93 208M231 208L231 210L233 210L233 208L231 208z"/>
<path style="fill:#63698e; stroke:none;" d="M267 208L267 210L269 210L269 208L267 208z"/>
<path style="fill:#a57d7b; stroke:none;" d="M91 210L91 212L93 212L93 210L91 210M229 210L229 212L231 212L231 210L229 210z"/>
<path style="fill:#63698e; stroke:none;" d="M265 212L265 214L267 214L267 212L265 212z"/>
<path style="fill:#a57d7b; stroke:none;" d="M227 214L227 216L229 216L229 214L227 214z"/>
<path style="fill:#63698e; stroke:none;" d="M263 214L263 216L265 216L265 214L263 214z"/>
<path style="fill:#a57d7b; stroke:none;" d="M87 216L87 218L89 218L89 216L87 216M225 216L225 218L227 218L227 216L225 216z"/>
<path style="fill:#63698e; stroke:none;" d="M261 216L261 218L263 218L263 216L261 216z"/>
<path style="fill:#a57d7b; stroke:none;" d="M85 218L85 220L87 220L87 218L85 218M223 218L223 220L225 220L225 218L223 218z"/>
<path style="fill:#63698e; stroke:none;" d="M259 220L259 222L261 222L261 220L259 220z"/>
<path style="fill:#a57d7b; stroke:none;" d="M221 222L221 224L223 224L223 222L221 222z"/>
<path style="fill:#63698e; stroke:none;" d="M257 222L257 224L259 224L259 222L257 222z"/>
<path style="fill:#a57d7b; stroke:none;" d="M81 224L81 226L83 226L83 224L81 224M219 224L219 226L221 226L221 224L219 224z"/>
<path style="fill:#63698e; stroke:none;" d="M255 224L255 226L257 226L257 224L255 224z"/>
<path style="fill:#a57d7b; stroke:none;" d="M79 226L79 228L81 228L81 226L79 226M217 226L217 228L219 228L219 226L217 226z"/>
<path style="fill:#63698e; stroke:none;" d="M253 228L253 230L255 230L255 228L253 228z"/>
<path style="fill:#a57d7b; stroke:none;" d="M77.6667 229.333L78.3333 229.667L77.6667 229.333M215 230L215 232L217 232L217 230L215 230z"/>
<path style="fill:#63698e; stroke:none;" d="M251 230L251 232L253 232L253 230L251 230z"/>
<path style="fill:#a57d7b; stroke:none;" d="M75 232L75 234L77 234L77 232L75 232M213 232L213 234L215 234L215 232L213 232M249.667 232.333L250.333 232.667L249.667 232.333M73 234L73 236L75 236L75 234L73 234M211 234L211 236L213 234L211 234z"/>
<path style="fill:#d32e27; stroke:none;" d="M212 235L213 236L212 235z"/>
<path style="fill:#a57d7b; stroke:none;" d="M71 236L71 238L73 238L73 236L71 236z"/>
<path style="fill:#63698e; stroke:none;" d="M247 236L247 238L249 238L249 236L247 236z"/>
<path style="fill:#a57d7b; stroke:none;" d="M209 238L209 240L211 240L211 238L209 238z"/>
<path style="fill:#63698e; stroke:none;" d="M245 238L245 240L247 240L247 238L245 238z"/>
<path style="fill:#a57d7b; stroke:none;" d="M69 240L69 242L71 242L71 240L69 240M207 240L207 242L209 242L209 240L207 240M243 240L243 242L245 242L243 240M67 242L67 244L69 244L69 242L67 242M65 244L65 246L67 246L67 244L65 244z"/>
<path style="fill:#63698e; stroke:none;" d="M241 244L241 246L243 246L243 244L241 244z"/>
<path style="fill:#a57d7b; stroke:none;" d="M203 246L203 248L205 248L205 246L203 246z"/>
<path style="fill:#63698e; stroke:none;" d="M239 246L239 248L241 248L241 246L239 246z"/>
<path style="fill:#a57d7b; stroke:none;" d="M63 248L63 250L65 250L65 248L63 248M201 248L201 250L203 250L203 248L201 248M238 249L239 250L238 249M61 250L61 252L63 252L63 250L61 250M59 252L59 254L61 254L61 252L59 252z"/>
<path style="fill:#63698e; stroke:none;" d="M235 252L235 254L237 254L237 252L235 252z"/>
<path style="fill:#a57d7b; stroke:none;" d="M197 254L197 256L199 256L199 254L197 254z"/>
<path style="fill:#63698e; stroke:none;" d="M233 254L233 256L235 256L235 254L233 254z"/>
<path style="fill:#a57d7b; stroke:none;" d="M57 256L57 258L59 258L59 256L57 256M195 256L195 258L197 258L197 256L195 256M231 256L231 258L233 258L231 256M55 258L55 260L57 260L57 258L55 258M53 260L53 262L55 262L55 260L53 260z"/>
<path style="fill:#63698e; stroke:none;" d="M229 260L229 262L231 262L231 260L229 260z"/>
<path style="fill:#a57d7b; stroke:none;" d="M191 262L191 264L193 264L193 262L191 262z"/>
<path style="fill:#63698e; stroke:none;" d="M227 262L227 264L229 264L229 262L227 262z"/>
<path style="fill:#a57d7b; stroke:none;" d="M189 264L189 266L191 266L191 264L189 264M226 264L227 265L226 264M49 266L49 268L51 268L51 266L49 266M47 268L47 270L49 270L49 268L47 268M188 268L189 269L188 268z"/>
<path style="fill:#63698e; stroke:none;" d="M223 268L223 270L225 270L225 268L223 268z"/>
<path style="fill:#a57d7b; stroke:none;" d="M185 270L185 272L187 272L187 270L185 270z"/>
<path style="fill:#63698e; stroke:none;" d="M221 270L221 272L223 272L223 270L221 270z"/>
<path style="fill:#a57d7b; stroke:none;" d="M183 272L183 274L185 274L185 272L183 272M43 274L43 276L45 276L45 274L43 274M41 276L41 278L43 278L43 276L41 276M181 276L181 278L183 278L183 276L181 276z"/>
<path style="fill:#63698e; stroke:none;" d="M217 276L217 278L219 278L219 276L217 276z"/>
<path style="fill:#a57d7b; stroke:none;" d="M179 278L179 280L181 280L181 278L179 278z"/>
<path style="fill:#63698e; stroke:none;" d="M215 278L215 280L217 280L217 278L215 278z"/>
<path style="fill:#a57d7b; stroke:none;" d="M177 280L177 282L179 282L179 280L177 280M37 282L37 284L39 284L39 282L37 282M35 284L35 286L37 286L37 284L35 284M175 284L175 286L177 286L177 284L175 284z"/>
<path style="fill:#63698e; stroke:none;" d="M211 284L211 286L213 286L213 284L211 284z"/>
<path style="fill:#a57d7b; stroke:none;" d="M33 286L33 288L35 288L35 286L33 286M173 286L173 288L175 288L175 286L173 286z"/>
<path style="fill:#63698e; stroke:none;" d="M209 286L209 288L211 288L211 286L209 286z"/>
<path style="fill:#a57d7b; stroke:none;" d="M171 288L171 290L173 290L173 288L171 288M31 290L31 292L33 292L33 290L31 290M29 292L29 294L31 294L31 292L29 292M169 292L169 294L171 294L171 292L169 292z"/>
<path style="fill:#63698e; stroke:none;" d="M205 292L205 294L207 294L207 292L205 292z"/>
<path style="fill:#a57d7b; stroke:none;" d="M27 294L27 296L29 296L29 294L27 294M167 294L167 296L169 296L169 294L167 294z"/>
<path style="fill:#63698e; stroke:none;" d="M203 294L203 296L205 296L205 294L203 294z"/>
<path style="fill:#a57d7b; stroke:none;" d="M165 296L165 298L167 298L167 296L165 296M25 298L25 300L27 300L27 298L25 298M23 300L23 302L25 302L25 300L23 300M163 300L163 302L165 302L165 300L163 300z"/>
<path style="fill:#63698e; stroke:none;" d="M199 300L199 302L201 302L201 300L199 300z"/>
<path style="fill:#a57d7b; stroke:none;" d="M21 302L21 304L23 304L23 302L21 302M161 302L161 304L163 304L163 302L161 302z"/>
<path style="fill:#63698e; stroke:none;" d="M197 302L197 304L199 304L199 302L197 302z"/>
<path style="fill:#a57d7b; stroke:none;" d="M159 304L159 306L161 306L161 304L159 304M19 306L19 308L21 308L21 306L19 306M17 308L17 310L19 310L19 308L17 308M157 308L157 310L159 310L159 308L157 308z"/>
<path style="fill:#63698e; stroke:none;" d="M193 308L193 310L195 310L195 308L193 308z"/>
<path style="fill:#a57d7b; stroke:none;" d="M15 310L15 312L17 312L17 310L15 310M155 310L155 312L157 312L157 310L155 310z"/>
<path style="fill:#63698e; stroke:none;" d="M191 310L191 312L193 312L193 310L191 310z"/>
<path style="fill:#a57d7b; stroke:none;" d="M153 312L153 314L155 314L155 312L153 312M13 314L13 316L15 316L15 314L13 314M11 316L11 318L13 318L13 316L11 316M151 316L151 318L153 318L153 316L151 316z"/>
<path style="fill:#63698e; stroke:none;" d="M187 316L187 318L189 318L189 316L187 316z"/>
<path style="fill:#a57d7b; stroke:none;" d="M9 318L9 320L11 320L11 318L9 318M149 318L149 320L151 320L151 318L149 318z"/>
<path style="fill:#63698e; stroke:none;" d="M185 318L185 320L187 320L187 318L185 318z"/>
<path style="fill:#a57d7b; stroke:none;" d="M148.333 320.667L148.667 321.333L148.333 320.667M7 322L7 324L9 324L9 322L7 322z"/>
<path style="fill:#63698e; stroke:none;" d="M183 322L183 324L185 324L185 322L183 322z"/>
</svg>
